
          <svg data-logo="logo" xmlns="http://www.w3.org/2000/svg" viewBox="0 0 493 43">
            <g id="logogram" transform="translate(0, 1) rotate(0)"><path d="M45.1357 4.50571C45.9335 3.61928 46.82 2.88798 47.7285 2.3118C49.3241 1.31457 51.0083 0.782715 52.7368 0.782715V15.2536C51.4737 10.8658 48.7479 7.0985 45.1357 4.50571ZM66.6537 40.7827H15.3961C6.97508 40.7827 0.171753 33.9572 0.171753 25.5583C0.171753 17.514 6.42106 10.9101 14.3324 10.3561V0.782715C16.1053 0.782715 17.856 1.29241 19.4959 2.3118C20.4044 2.86582 21.2909 3.59712 22.0887 4.43922C25.3463 2.15668 29.2909 0.827036 33.5679 0.827036C33.5679 10.068 30.2438 20.816 19.4294 20.8381H33.4571C33.0582 19.0431 31.4183 17.7135 29.4682 17.6913H37.6233C35.6731 17.6913 34.0332 19.0431 33.6344 20.8603H46.7091C49.3241 20.8603 51.9169 21.37 54.3546 22.3894C56.7701 23.3866 58.9862 24.8714 60.8255 26.7107C62.687 28.5722 64.1496 30.7661 65.1468 33.1816C66.1441 35.575 66.6537 38.1678 66.6537 40.7827ZM22.9529 10.6221C23.2853 11.4863 24.1718 12.4614 25.4127 13.1705C26.6537 13.8797 27.9391 14.1678 28.8477 14.0348C28.5152 13.1705 27.6288 12.1955 26.3878 11.4863C25.1468 10.7772 23.8615 10.4891 22.9529 10.6221ZM41.6122 13.1705C40.3712 13.8797 39.0859 14.1678 38.1773 14.0348C38.5097 13.1705 39.3961 12.1955 40.6371 11.4863C41.8781 10.7772 43.1634 10.4891 44.072 10.6221C43.7618 11.4863 42.8532 12.4614 41.6122 13.1705Z" fill="#2E5077"/></g>
            <g id="logotype" transform="translate(73, 2)"><path fill="#F58D8D" d="M17.64 32.50L17.64 32.50Q16.92 32.50 16.20 32.43Q15.48 32.36 14.78 32.24L14.78 32.24Q14.48 32.19 14.17 32.15Q13.86 32.10 13.54 32.10L13.54 32.10Q12.82 32.10 12.14 32.36Q11.45 32.62 10.73 32.62L10.73 32.62Q9.74 32.62 9.36 32.07Q8.97 31.52 8.79 30.65L8.79 30.65Q8.56 29.59 8.37 28.51Q8.17 27.44 7.97 26.38L7.97 26.38Q7.91 26.17 7.91 25.95L7.91 25.95Q7.91 25.15 8.50 24.70Q9.09 24.26 9.83 24.26L9.83 24.26Q10.49 24.26 10.98 24.70Q11.47 25.15 11.95 25.81Q12.43 26.48 13.05 27.14Q13.67 27.80 14.62 28.24Q15.57 28.68 17.01 28.68L17.01 28.68Q17.86 28.68 18.74 28.30Q19.62 27.92 19.62 26.87L19.62 26.87Q19.62 26.16 19.20 25.75Q18.78 25.35 18.19 25.12Q17.59 24.89 17.04 24.74L17.04 24.74Q15.25 24.21 13.55 23.53Q11.86 22.86 10.50 21.85Q9.14 20.84 8.34 19.34Q7.54 17.83 7.54 15.65L7.54 15.65Q7.54 13.12 8.73 11.40Q9.91 9.68 11.90 8.80Q13.88 7.92 16.24 7.92L16.24 7.92Q16.94 7.92 17.63 7.99Q18.32 8.06 19.01 8.23L19.01 8.23Q19.57 8.36 20.14 8.53Q20.71 8.69 21.30 8.69L21.30 8.69Q21.94 8.69 22.46 8.25Q22.97 7.80 23.67 7.80L23.67 7.80Q24.39 7.80 24.82 8.22Q25.26 8.64 25.53 9.24Q25.79 9.85 25.96 10.42L25.96 10.42L27.33 14.77Q27.45 15.18 27.45 15.53L27.45 15.53Q27.45 16.36 26.85 16.86Q26.25 17.35 25.45 17.35L25.45 17.35Q24.71 17.35 24.35 16.97Q24.00 16.58 23.64 16.02L23.64 16.02Q22.49 14.24 21.07 13.01Q19.65 11.78 17.36 11.78L17.36 11.78Q16.53 11.78 15.84 12.21Q15.14 12.64 15.14 13.58L15.14 13.58Q15.14 14.40 15.66 14.88Q16.19 15.37 16.92 15.65Q17.66 15.94 18.29 16.14L18.29 16.14Q19.95 16.67 21.48 17.34Q23.02 18.00 24.24 18.98Q25.47 19.95 26.17 21.37Q26.88 22.79 26.88 24.79L26.88 24.79Q26.88 26.72 26.11 28.17Q25.33 29.62 24.01 30.58Q22.70 31.54 21.04 32.02Q19.38 32.50 17.64 32.50ZM37.33 13.95L37.33 13.95Q38.03 13.95 38.39 14.44Q38.76 14.93 38.76 15.58L38.76 15.58L38.76 17.15Q40.11 15.90 41.73 14.93Q43.36 13.95 44.95 13.95L44.95 13.95Q46.61 13.95 47.70 14.77Q48.79 15.59 49.35 16.91Q49.90 18.23 49.90 19.75L49.90 19.75L49.90 26.86Q49.90 27.33 49.95 27.80Q49.99 28.26 50.31 28.67L50.31 28.67Q50.71 29.16 51.01 29.44Q51.31 29.71 51.31 30.44L51.31 30.44Q51.31 31.20 50.84 31.60Q50.38 32 49.65 32L49.65 32L42.50 32Q41.79 32 41.40 31.57Q41.02 31.15 41.02 30.44L41.02 30.44Q41.02 29.80 41.32 29.43Q41.62 29.06 41.91 28.66Q42.21 28.26 42.21 27.52L42.21 27.52L42.21 21.59Q42.21 20.79 41.90 20.02Q41.58 19.25 40.59 19.25L40.59 19.25Q39.99 19.25 39.56 19.48Q39.14 19.71 38.76 20.07L38.76 20.07L38.76 27.06Q38.76 27.52 38.80 27.99Q38.83 28.46 39.14 28.86L39.14 28.86Q39.50 29.28 39.74 29.55Q39.97 29.81 39.97 30.44L39.97 30.44Q39.97 31.15 39.59 31.57Q39.21 32 38.49 32L38.49 32L31.34 32Q30.61 32 30.15 31.60Q29.69 31.20 29.69 30.44L29.69 30.44Q29.69 29.88 29.90 29.56Q30.11 29.25 30.39 28.98Q30.66 28.70 30.87 28.31Q31.09 27.92 31.09 27.23L31.09 27.23L31.09 20.89Q31.09 20.12 30.85 19.73Q30.61 19.34 30.28 19.11Q29.96 18.88 29.72 18.60Q29.48 18.33 29.48 17.78L29.48 17.78Q29.48 17.11 29.93 16.73Q30.37 16.35 30.92 16.12L30.92 16.12L34.61 14.64Q35.26 14.36 35.93 14.16Q36.61 13.95 37.33 13.95ZM52.74 28.07L52.74 28.07Q52.74 26.50 53.48 25.45Q54.21 24.40 55.40 23.75Q56.59 23.11 57.97 22.84Q59.35 22.57 60.64 22.57L60.64 22.57Q61.01 22.57 61.41 22.57Q61.80 22.58 62.17 22.65L62.17 22.65L62.17 18.21Q62.17 17.78 61.99 17.22Q61.82 16.65 61.27 16.65L61.27 16.65Q60.74 16.65 60.61 17.09Q60.48 17.52 60.48 17.92L60.48 17.92Q60.48 18.09 60.49 18.27Q60.50 18.45 60.50 18.64L60.50 18.64Q60.50 20.40 59.29 21.11Q58.07 21.81 56.52 21.81L56.52 21.81Q55.22 21.81 54.26 21.23Q53.30 20.65 53.30 19.18L53.30 19.18Q53.30 18.60 53.54 18.05Q53.77 17.51 54.13 17.08L54.13 17.08Q55.17 15.82 56.75 15.15Q58.33 14.48 60.08 14.24Q61.83 13.99 63.37 13.99L63.37 13.99Q65.11 13.99 66.57 14.48Q68.02 14.98 68.89 16.13Q69.76 17.29 69.76 19.23L69.76 19.23L69.76 27.11Q69.76 27.40 69.90 27.63Q70.04 27.85 70.36 27.85L70.36 27.85Q70.62 27.85 70.80 27.68Q70.98 27.52 71.23 27.52L71.23 27.52Q71.73 27.52 71.98 27.86Q72.22 28.21 72.22 28.67L72.22 28.67Q72.22 29.86 71.50 30.73Q70.77 31.59 69.69 32.04Q68.62 32.50 67.52 32.50L67.52 32.50Q66.24 32.50 64.93 31.93Q63.63 31.37 63.13 30.17L63.13 30.17Q62.26 31.38 60.75 31.94Q59.23 32.50 57.78 32.50L57.78 32.50Q56.45 32.50 55.30 31.99Q54.14 31.49 53.44 30.50Q52.74 29.50 52.74 28.07ZM60.45 26.57L60.45 26.57Q60.45 27.25 60.77 27.86Q61.10 28.46 61.88 28.46L61.88 28.46Q62.04 28.46 62.17 28.43L62.17 28.43L62.17 24.89Q61.88 24.77 61.58 24.77L61.58 24.77Q60.93 24.77 60.69 25.41Q60.45 26.05 60.45 26.57ZM89.45 16.29L89.45 16.29Q89.45 17.01 89.09 17.64Q88.73 18.28 88.34 18.84L88.34 18.84L81.25 28.99Q82.37 28.92 83.22 28.65Q84.07 28.38 84.81 27.68Q85.55 26.99 86.36 25.68L86.36 25.68Q86.70 25.10 87.03 24.67Q87.36 24.24 88.13 24.24L88.13 24.24Q88.68 24.24 89.21 24.65Q89.74 25.06 89.74 25.66L89.74 25.66Q89.74 25.78 89.72 25.85L89.72 25.85L88.71 31.18Q88.46 32.53 87.16 32.53L87.16 32.53Q86.42 32.53 85.72 32.26Q85.02 32 84.27 32L84.27 32L75.40 32Q74.74 32 74.06 31.83Q73.39 31.66 72.93 31.22Q72.48 30.79 72.48 29.97L72.48 29.97Q72.48 29.35 72.69 28.75Q72.91 28.15 73.25 27.66L73.25 27.66L80.46 17.44Q79.09 17.47 78.06 17.99Q77.03 18.50 75.98 20.14L75.98 20.14Q75.62 20.70 75.26 21.15Q74.89 21.59 74.14 21.59L74.14 21.59Q73.57 21.59 73.05 21.17Q72.53 20.75 72.53 20.16L72.53 20.16Q72.53 20.02 72.55 19.95L72.55 19.95L73.49 15.30Q73.76 13.95 75.04 13.95L75.04 13.95Q75.79 13.95 76.50 14.23Q77.20 14.50 77.93 14.50L77.93 14.50L86.99 14.50Q87.89 14.50 88.67 14.85Q89.45 15.20 89.45 16.29ZM107.45 16.29L107.45 16.29Q107.45 17.01 107.09 17.64Q106.73 18.28 106.33 18.84L106.33 18.84L99.24 28.99Q100.37 28.92 101.22 28.65Q102.06 28.38 102.81 27.68Q103.55 26.99 104.35 25.68L104.35 25.68Q104.69 25.10 105.03 24.67Q105.36 24.24 106.13 24.24L106.13 24.24Q106.68 24.24 107.21 24.65Q107.74 25.06 107.74 25.66L107.74 25.66Q107.74 25.78 107.72 25.85L107.72 25.85L106.71 31.18Q106.45 32.53 105.16 32.53L105.16 32.53Q104.42 32.53 103.72 32.26Q103.02 32 102.27 32L102.27 32L93.40 32Q92.73 32 92.06 31.83Q91.38 31.66 90.93 31.22Q90.48 30.79 90.48 29.97L90.48 29.97Q90.48 29.35 90.69 28.75Q90.90 28.15 91.24 27.66L91.24 27.66L98.46 17.44Q97.09 17.47 96.05 17.99Q95.02 18.50 93.98 20.14L93.98 20.14Q93.62 20.70 93.25 21.15Q92.88 21.59 92.13 21.59L92.13 21.59Q91.57 21.59 91.05 21.17Q90.53 20.75 90.53 20.16L90.53 20.16Q90.53 20.02 90.54 19.95L90.54 19.95L91.48 15.30Q91.76 13.95 93.04 13.95L93.04 13.95Q93.79 13.95 94.49 14.23Q95.19 14.50 95.93 14.50L95.93 14.50L104.98 14.50Q105.89 14.50 106.67 14.85Q107.45 15.20 107.45 16.29ZM115.75 34.53L115.75 34.53Q116.40 34.53 116.78 33.95Q117.15 33.37 117.43 32.67L117.43 32.67L110.47 19.23Q110.16 18.64 109.53 18.18Q108.90 17.73 108.37 17.23Q107.84 16.74 107.84 16.04L107.84 16.04Q107.84 15.27 108.32 14.88Q108.80 14.50 109.53 14.50L109.53 14.50L118.67 14.50Q119.41 14.50 119.89 14.88Q120.37 15.25 120.37 16.02L120.37 16.02Q120.37 16.70 120.06 17.03Q119.75 17.35 119.35 17.52Q118.95 17.68 118.64 17.88Q118.33 18.07 118.33 18.48L118.33 18.48Q118.33 18.96 118.49 19.44Q118.64 19.92 118.86 20.36L118.86 20.36L121.19 24.99L123.29 20.62Q123.65 19.87 123.65 19.01L123.65 19.01Q123.65 18.29 123.30 18.02Q122.95 17.75 122.49 17.59Q122.04 17.44 121.69 17.12Q121.34 16.81 121.34 16.00L121.34 16.00Q121.34 15.23 121.83 14.87Q122.31 14.50 123.03 14.50L123.03 14.50L128.02 14.50Q128.76 14.50 129.23 14.88Q129.70 15.27 129.70 16.04L129.70 16.04Q129.70 16.64 129.47 16.92Q129.25 17.20 128.84 17.58L128.84 17.58Q128.11 18.26 127.73 18.80Q127.35 19.34 126.93 20.24L126.93 20.24L122.28 30.05Q121.65 31.38 120.94 32.90Q120.23 34.41 119.31 35.73Q118.38 37.06 117.10 37.90Q115.82 38.75 114.04 38.75L114.04 38.75Q112.40 38.75 111.08 38.12Q109.75 37.49 108.97 36.27Q108.20 35.06 108.20 33.35L108.20 33.35Q108.20 32.02 108.89 31.08Q109.58 30.14 111.02 30.14L111.02 30.14Q111.96 30.14 112.56 30.58Q113.17 31.03 113.57 31.68Q113.97 32.32 114.29 32.98Q114.61 33.64 114.94 34.08Q115.27 34.53 115.75 34.53ZM162.03 17.30L162.03 17.30Q162.03 19.40 161.24 20.86Q160.44 22.31 159.08 23.22Q157.72 24.12 156.01 24.53Q154.31 24.94 152.46 24.94L152.46 24.94Q151.04 24.94 149.67 24.65L149.67 24.65L149.67 26.41Q149.67 27.23 150.08 27.59Q150.49 27.95 151.04 28.18Q151.59 28.41 152.00 28.82Q152.41 29.23 152.41 30.14L152.41 30.14Q152.41 31.11 151.85 31.56Q151.30 32 150.38 32L150.38 32L141.01 32Q140.10 32 139.54 31.55Q138.98 31.09 138.98 30.14L138.98 30.14Q138.98 29.27 139.32 28.83Q139.66 28.39 140.12 28.12Q140.58 27.85 140.92 27.49Q141.27 27.13 141.27 26.41L141.27 26.41L141.27 13.94Q141.27 13.20 140.92 12.83Q140.58 12.47 140.12 12.19Q139.66 11.92 139.32 11.49Q138.98 11.06 138.98 10.21L138.98 10.21Q138.98 9.25 139.54 8.80Q140.10 8.35 141.01 8.35L141.01 8.35L149.90 8.35Q152.03 8.35 154.18 8.81Q156.32 9.27 158.10 10.30Q159.88 11.34 160.95 13.06Q162.03 14.79 162.03 17.30ZM153.95 17.05L153.95 17.05Q153.95 15.12 152.82 13.66Q151.69 12.21 149.67 12.14L149.67 12.14L149.67 21.54Q149.86 21.56 150.05 21.56L150.05 21.56Q152.03 21.56 152.99 20.21Q153.95 18.86 153.95 17.05ZM162.25 28.07L162.25 28.07Q162.25 26.50 162.99 25.45Q163.72 24.40 164.91 23.75Q166.10 23.11 167.48 22.84Q168.87 22.57 170.15 22.57L170.15 22.57Q170.52 22.57 170.92 22.57Q171.31 22.58 171.69 22.65L171.69 22.65L171.69 18.21Q171.69 17.78 171.51 17.22Q171.33 16.65 170.78 16.65L170.78 16.65Q170.25 16.65 170.12 17.09Q169.99 17.52 169.99 17.92L169.99 17.92Q169.99 18.09 170.00 18.27Q170.01 18.45 170.01 18.64L170.01 18.64Q170.01 20.40 168.80 21.11Q167.58 21.81 166.03 21.81L166.03 21.81Q164.73 21.81 163.77 21.23Q162.82 20.65 162.82 19.18L162.82 19.18Q162.82 18.60 163.05 18.05Q163.28 17.51 163.64 17.08L163.64 17.08Q164.68 15.82 166.26 15.15Q167.84 14.48 169.59 14.24Q171.34 13.99 172.88 13.99L172.88 13.99Q174.63 13.99 176.08 14.48Q177.53 14.98 178.40 16.13Q179.27 17.29 179.27 19.23L179.27 19.23L179.27 27.11Q179.27 27.40 179.41 27.63Q179.55 27.85 179.87 27.85L179.87 27.85Q180.13 27.85 180.31 27.68Q180.49 27.52 180.74 27.52L180.74 27.52Q181.24 27.52 181.49 27.86Q181.73 28.21 181.73 28.67L181.73 28.67Q181.73 29.86 181.01 30.73Q180.28 31.59 179.21 32.04Q178.13 32.50 177.04 32.50L177.04 32.50Q175.75 32.50 174.45 31.93Q173.14 31.37 172.64 30.17L172.64 30.17Q171.77 31.38 170.26 31.94Q168.75 32.50 167.29 32.50L167.29 32.50Q165.96 32.50 164.81 31.99Q163.65 31.49 162.95 30.50Q162.25 29.50 162.25 28.07ZM169.96 26.57L169.96 26.57Q169.96 27.25 170.28 27.86Q170.61 28.46 171.40 28.46L171.40 28.46Q171.55 28.46 171.69 28.43L171.69 28.43L171.69 24.89Q171.40 24.77 171.09 24.77L171.09 24.77Q170.44 24.77 170.20 25.41Q169.96 26.05 169.96 26.57ZM192.81 32.36L192.81 32.36L190.30 32.36Q189.15 32.36 188.49 31.72Q187.84 31.08 187.41 30.09L187.41 30.09L182.71 19.29Q182.54 18.86 182.32 18.46Q182.09 18.07 181.73 17.76L181.73 17.76Q181.29 17.37 180.92 17.04Q180.56 16.70 180.56 16.04L180.56 16.04Q180.56 15.23 181.06 14.87Q181.56 14.50 182.30 14.50L182.30 14.50L191.13 14.50Q192.67 14.50 192.67 16.00L192.67 16.00Q192.67 16.60 192.37 16.96Q192.07 17.32 191.67 17.55Q191.27 17.78 190.97 18.02Q190.67 18.26 190.67 18.64L190.67 18.64Q190.67 19.01 190.85 19.51Q191.03 20.00 191.17 20.34L191.17 20.34L193.80 27.03L196.47 20.40L196.02 19.29Q195.80 18.72 195.54 18.34Q195.29 17.95 194.83 17.56L194.83 17.56Q194.40 17.18 194.23 16.88Q194.06 16.58 194.06 16.00L194.06 16.00Q194.06 14.50 195.59 14.50L195.59 14.50L204.11 14.50Q204.82 14.50 205.12 14.94Q205.42 15.39 205.42 16.04L205.42 16.04Q205.42 16.65 205.15 16.99Q204.87 17.32 204.52 17.53Q204.16 17.75 203.88 17.96Q203.61 18.17 203.61 18.55L203.61 18.55Q203.61 18.96 203.76 19.34Q203.90 19.71 204.04 20.09L204.04 20.09L206.62 27.10L208.84 20.70Q208.98 20.33 209.07 19.95Q209.16 19.58 209.16 19.18L209.16 19.18Q209.16 18.57 208.83 18.25Q208.50 17.94 208.05 17.70Q207.61 17.47 207.28 17.11Q206.94 16.76 206.94 16.04L206.94 16.04Q206.94 15.39 207.28 14.94Q207.63 14.50 208.31 14.50L208.31 14.50L213.59 14.50Q214.33 14.50 214.82 14.88Q215.32 15.25 215.32 16.04L215.32 16.04Q215.32 16.65 215.10 16.93Q214.89 17.20 214.44 17.56L214.44 17.56Q213.66 18.19 213.33 18.80Q213.01 19.40 212.65 20.31L212.65 20.31L208.72 30.29Q207.92 32.36 205.80 32.36L205.80 32.36L203.30 32.36Q202.17 32.36 201.50 31.71Q200.82 31.06 200.43 30.09L200.43 30.09L198.23 24.69L195.71 30.29Q195.29 31.23 194.59 31.79Q193.89 32.36 192.81 32.36ZM223.38 16.88L223.38 16.88Q222.80 16.88 222.34 17.13Q221.88 17.39 221.88 18.05L221.88 18.05Q221.88 18.60 222.14 18.89Q222.39 19.18 222.87 19.39L222.87 19.39Q223.38 19.61 223.95 19.71Q224.51 19.81 225.04 19.93L225.04 19.93Q226.61 20.28 227.98 21.09Q229.35 21.90 230.19 23.17Q231.04 24.45 231.04 26.19L231.04 26.19Q231.04 28.53 229.98 29.92Q228.92 31.30 227.17 31.90Q225.42 32.50 223.33 32.50L223.33 32.50Q222.80 32.50 221.87 32.36Q220.94 32.22 220.49 31.98L220.49 31.98L220.48 31.98Q220.31 31.90 219.91 31.79Q219.52 31.69 219.33 31.69L219.33 31.69Q218.80 31.69 218.43 32.11Q218.05 32.53 217.50 32.53L217.50 32.53Q216.77 32.53 216.35 32.05Q215.93 31.57 215.72 30.91Q215.50 30.26 215.33 29.69L215.33 29.69Q215.21 29.21 215.06 28.74Q214.91 28.27 214.91 27.78L214.91 27.78Q214.91 26.89 215.38 26.34Q215.86 25.80 216.77 25.80L216.77 25.80Q217.66 25.80 218.24 26.18Q218.82 26.57 219.27 27.13Q219.73 27.69 220.20 28.27Q220.67 28.84 221.33 29.22Q222.00 29.61 223.01 29.61L223.01 29.61Q223.71 29.61 224.07 29.19Q224.43 28.77 224.43 28.10L224.43 28.10Q224.43 27.15 223.91 26.87Q223.40 26.60 222.60 26.45L222.60 26.45Q221.13 26.16 219.80 25.76Q218.48 25.37 217.46 24.69Q216.44 24.00 215.85 22.87Q215.27 21.75 215.27 19.97L215.27 19.97Q215.27 17.87 216.41 16.54Q217.56 15.22 219.32 14.59Q221.09 13.95 222.92 13.95L222.92 13.95Q223.62 13.95 224.30 14.00Q224.97 14.06 225.64 14.28L225.64 14.28Q225.72 14.29 226.04 14.41Q226.36 14.53 226.66 14.65Q226.97 14.76 226.97 14.76L226.97 14.76Q227.54 14.76 227.94 14.35Q228.34 13.95 228.90 13.95L228.90 13.95Q229.62 13.95 229.96 14.51Q230.30 15.06 230.45 15.80Q230.59 16.53 230.68 17.05L230.68 17.05Q230.75 17.44 230.82 17.84Q230.89 18.24 230.89 18.64L230.89 18.64Q230.89 19.32 230.57 19.93Q230.25 20.53 229.45 20.53L229.45 20.53Q228.65 20.53 228.03 19.98Q227.42 19.42 226.80 18.70Q226.19 17.99 225.38 17.43Q224.58 16.88 223.38 16.88ZM266.88 21.34L266.88 21.34Q266.88 22.09 266.53 22.47Q266.19 22.86 265.75 23.10Q265.30 23.34 264.96 23.63Q264.62 23.93 264.62 24.51L264.62 24.51L264.62 30.77Q264.62 32.68 262.74 32.68L262.74 32.68Q262.04 32.68 261.52 32.26Q261.00 31.85 260.53 31.43Q260.06 31.01 259.53 31.01L259.53 31.01Q259.03 31.01 258.46 31.27Q257.89 31.52 257.43 31.73L257.43 31.73Q256.43 32.19 255.43 32.43Q254.42 32.67 253.31 32.67L253.31 32.67Q249.46 32.67 246.78 31.10Q244.10 29.54 242.69 26.73Q241.29 23.92 241.29 20.16L241.29 20.16Q241.29 17.49 242.28 15.21Q243.28 12.93 245.04 11.24Q246.80 9.54 249.11 8.60Q251.43 7.65 254.06 7.65L254.06 7.65Q255.07 7.65 256.06 7.78Q257.05 7.90 258.01 8.19L258.01 8.19Q258.50 8.33 258.97 8.47Q259.44 8.60 259.96 8.60L259.96 8.60Q260.40 8.60 260.77 8.37Q261.13 8.14 261.50 7.92Q261.87 7.70 262.31 7.70L262.31 7.70Q263.19 7.70 263.45 8.25Q263.71 8.79 263.92 9.48L263.92 9.48Q264.07 9.97 264.34 10.76Q264.60 11.54 264.89 12.42Q265.17 13.30 265.36 14.07Q265.54 14.84 265.54 15.29L265.54 15.29Q265.54 16.11 264.89 16.51Q264.24 16.91 263.51 16.91L263.51 16.91Q262.76 16.91 262.38 16.53Q262.01 16.16 261.63 15.58L261.63 15.58Q260.78 14.28 259.97 13.28Q259.17 12.28 258.08 11.71Q257.00 11.15 255.29 11.15L255.29 11.15Q253.65 11.15 252.57 11.88Q251.50 12.60 250.87 13.79Q250.25 14.98 249.98 16.37Q249.72 17.76 249.72 19.11L249.72 19.11Q249.72 20.11 249.85 21.12Q249.97 22.14 250.25 23.10L250.25 23.10Q250.62 24.38 251.38 25.57Q252.15 26.75 253.27 27.51Q254.40 28.26 255.85 28.26L255.85 28.26Q256.47 28.26 256.83 28.04Q257.19 27.83 257.19 27.15L257.19 27.15L257.19 24.51Q257.19 24.07 257.02 23.92Q256.84 23.76 256.50 23.56L256.50 23.56Q256.06 23.28 255.54 23.02Q255.02 22.75 254.66 22.37Q254.30 21.99 254.30 21.35L254.30 21.35Q254.30 20.40 254.90 19.99Q255.49 19.59 256.37 19.59L256.37 19.59L264.83 19.59Q265.70 19.59 266.29 19.99Q266.88 20.38 266.88 21.34ZM278.02 21.87L278.02 21.87L278.02 26.86Q278.02 27.85 278.25 28.19Q278.48 28.53 279.47 28.74L279.47 28.74Q280.34 28.91 280.86 29.14Q281.39 29.37 281.39 30.44L281.39 30.44Q281.39 31.21 280.92 31.61Q280.46 32 279.71 32L279.71 32L270.69 32Q269.95 32 269.47 31.61Q269.00 31.21 269.00 30.44L269.00 30.44Q269.00 29.83 269.23 29.52Q269.46 29.21 269.76 28.97Q270.06 28.72 270.29 28.32Q270.52 27.92 270.52 27.10L270.52 27.10L270.52 20.89Q270.52 20.12 270.25 19.74Q269.99 19.35 269.65 19.13Q269.32 18.91 269.06 18.63Q268.79 18.35 268.79 17.78L268.79 17.78Q268.79 17.11 269.23 16.73Q269.66 16.35 270.23 16.12L270.23 16.12L274.50 14.43Q274.91 14.26 275.34 14.11Q275.76 13.95 276.22 13.95L276.22 13.95Q276.82 13.95 277.11 14.41Q277.40 14.86 277.51 15.45Q277.63 16.04 277.68 16.48L277.68 16.48Q277.73 16.79 277.78 17.10Q277.83 17.41 277.87 17.71L277.87 17.71Q278.40 16.14 279.50 15.05Q280.60 13.95 282.55 13.95L282.55 13.95Q283.93 13.95 284.73 14.64Q285.52 15.32 285.86 16.39Q286.21 17.46 286.21 18.65L286.21 18.65Q286.21 19.76 285.91 20.80Q285.62 21.83 284.90 22.50Q284.17 23.16 282.86 23.16L282.86 23.16Q281.42 23.16 280.76 22.72Q280.10 22.28 279.92 21.63Q279.73 20.98 279.72 20.33Q279.71 19.68 279.61 19.23Q279.51 18.79 278.99 18.79L278.99 18.79Q278.53 18.79 278.33 19.43Q278.12 20.07 278.07 20.81Q278.02 21.54 278.02 21.87ZM296.85 13.95L296.85 13.95Q299.67 13.95 301.80 15.12Q303.93 16.28 305.12 18.38Q306.32 20.48 306.32 23.32L306.32 23.32Q306.32 26.10 305.00 28.16Q303.69 30.22 301.47 31.36Q299.26 32.50 296.56 32.50L296.56 32.50Q293.72 32.50 291.59 31.32Q289.45 30.15 288.26 28.03Q287.08 25.90 287.08 23.06L287.08 23.06Q287.08 20.29 288.41 18.24Q289.74 16.19 291.96 15.07Q294.19 13.95 296.85 13.95ZM297.83 28.72L297.83 28.72Q298.25 28.72 298.43 28.27Q298.61 27.83 298.66 27.29Q298.71 26.75 298.71 26.46L298.71 26.46Q298.71 25.49 298.56 24.52Q298.41 23.56 298.17 22.62L298.17 22.62Q298.08 22.24 297.84 21.45Q297.60 20.65 297.26 19.78Q296.92 18.91 296.51 18.29Q296.10 17.68 295.64 17.68L295.64 17.68Q295.25 17.68 295.07 18.12Q294.89 18.57 294.84 19.11Q294.78 19.64 294.78 19.92L294.78 19.92Q294.78 20.38 294.92 21.40Q295.06 22.41 295.32 23.66Q295.59 24.91 295.96 26.06Q296.34 27.21 296.81 27.97Q297.28 28.72 297.83 28.72ZM317.92 13.95L317.92 13.95Q320.74 13.95 322.87 15.12Q325.00 16.28 326.20 18.38Q327.39 20.48 327.39 23.32L327.39 23.32Q327.39 26.10 326.08 28.16Q324.76 30.22 322.55 31.36Q320.33 32.50 317.63 32.50L317.63 32.50Q314.80 32.50 312.66 31.32Q310.52 30.15 309.34 28.03Q308.15 25.90 308.15 23.06L308.15 23.06Q308.15 20.29 309.48 18.24Q310.81 16.19 313.04 15.07Q315.26 13.95 317.92 13.95ZM318.90 28.72L318.90 28.72Q319.33 28.72 319.50 28.27Q319.68 27.83 319.74 27.29Q319.79 26.75 319.79 26.46L319.79 26.46Q319.79 25.49 319.63 24.52Q319.48 23.56 319.24 22.62L319.24 22.62Q319.15 22.24 318.92 21.45Q318.68 20.65 318.33 19.78Q317.99 18.91 317.58 18.29Q317.17 17.68 316.71 17.68L316.71 17.68Q316.32 17.68 316.14 18.12Q315.96 18.57 315.91 19.11Q315.86 19.64 315.86 19.92L315.86 19.92Q315.86 20.38 315.99 21.40Q316.13 22.41 316.39 23.66Q316.66 24.91 317.04 26.06Q317.41 27.21 317.88 27.97Q318.35 28.72 318.90 28.72ZM336.88 13.95L336.88 13.95Q337.58 13.95 337.94 14.44Q338.31 14.93 338.31 15.58L338.31 15.58L338.31 17.30Q339.65 16.04 341.26 15.00Q342.88 13.95 344.41 13.95L344.41 13.95Q346.24 13.95 347.34 15.01Q348.43 16.07 348.86 17.59L348.86 17.59Q349.76 16.70 350.80 15.87Q351.85 15.03 352.98 14.49Q354.10 13.95 355.27 13.95L355.27 13.95Q356.89 13.95 357.94 14.80Q358.99 15.65 359.49 16.97Q360.00 18.29 360.00 19.75L360.00 19.75L360.00 26.86Q360.00 27.25 360.05 27.84Q360.10 28.43 360.43 28.70L360.43 28.70L360.43 28.72Q360.80 29.11 361.09 29.48Q361.38 29.85 361.38 30.44L361.38 30.44Q361.38 31.20 360.92 31.60Q360.46 32 359.73 32L359.73 32L352.70 32Q352.00 32 351.61 31.56Q351.21 31.13 351.21 30.44L351.21 30.44Q351.21 29.81 351.51 29.47Q351.81 29.13 352.10 28.71Q352.39 28.29 352.39 27.49L352.39 27.49L352.39 21.59Q352.39 21.11 352.29 20.58Q352.19 20.04 351.88 19.64Q351.57 19.25 350.96 19.25L350.96 19.25Q350.39 19.25 349.96 19.56Q349.52 19.87 349.15 20.24L349.15 20.24L349.15 27.33Q349.15 28.24 349.44 28.68Q349.73 29.13 350.02 29.47Q350.31 29.81 350.31 30.44L350.31 30.44Q350.31 31.15 349.92 31.57Q349.54 32 348.82 32L348.82 32L341.85 32Q341.13 32 340.76 31.56Q340.38 31.13 340.38 30.44L340.38 30.44Q340.38 29.81 340.67 29.46Q340.96 29.11 341.25 28.70Q341.54 28.29 341.54 27.49L341.54 27.49L341.54 21.59Q341.54 21.11 341.44 20.58Q341.34 20.04 341.03 19.64Q340.72 19.25 340.11 19.25L340.11 19.25Q339.56 19.25 339.12 19.55Q338.67 19.85 338.31 20.24L338.31 20.24L338.31 27.33Q338.31 28.26 338.60 28.70Q338.89 29.15 339.18 29.48Q339.47 29.81 339.47 30.44L339.47 30.44Q339.47 31.13 339.10 31.56Q338.72 32 338.00 32L338.00 32L330.98 32Q330.25 32 329.78 31.60Q329.32 31.20 329.32 30.44L329.32 30.44Q329.32 29.69 329.67 29.33Q330.02 28.98 330.37 28.56Q330.71 28.14 330.71 27.23L330.71 27.23L330.71 20.89Q330.71 20.12 330.47 19.74Q330.23 19.35 329.92 19.13Q329.61 18.91 329.37 18.63Q329.13 18.35 329.13 17.78L329.13 17.78Q329.13 17.08 329.55 16.72Q329.97 16.36 330.55 16.12L330.55 16.12L334.16 14.64Q334.81 14.36 335.48 14.16Q336.16 13.95 336.88 13.95ZM370.83 13.95L370.83 13.95Q371.53 13.95 371.92 14.43Q372.30 14.91 372.30 15.58L372.30 15.58L372.30 26.86Q372.30 27.33 372.35 27.82Q372.39 28.31 372.73 28.67L372.73 28.67Q373.18 29.15 373.47 29.42Q373.77 29.69 373.77 30.44L373.77 30.44Q373.77 31.20 373.30 31.60Q372.83 32 372.10 32L372.10 32L364.84 32Q364.10 32 363.63 31.61Q363.16 31.21 363.16 30.44L363.16 30.44Q363.16 29.71 363.45 29.41Q363.74 29.11 364.20 28.67L364.20 28.67Q364.54 28.33 364.59 27.81Q364.63 27.30 364.63 26.86L364.63 26.86L364.63 20.89Q364.63 20.55 364.58 20.18Q364.53 19.81 364.29 19.56L364.29 19.56Q364.22 19.47 364.13 19.42Q364.03 19.37 363.96 19.30L363.96 19.30Q363.59 18.91 363.27 18.66Q362.96 18.41 362.96 17.78L362.96 17.78Q362.96 17.10 363.38 16.72Q363.81 16.35 364.39 16.12L364.39 16.12L368.08 14.64Q368.73 14.38 369.43 14.17Q370.13 13.95 370.83 13.95ZM368.27 13.88L368.27 13.88Q367.18 13.88 366.07 13.56Q364.96 13.24 364.21 12.47Q363.47 11.71 363.47 10.42L363.47 10.42Q363.47 9.12 364.22 8.37Q364.97 7.63 366.08 7.32Q367.19 7.01 368.27 7.01L368.27 7.01Q369.35 7.01 370.47 7.32Q371.59 7.63 372.35 8.37Q373.11 9.12 373.11 10.42L373.11 10.42Q373.11 11.73 372.35 12.49Q371.60 13.25 370.48 13.57Q369.36 13.88 368.27 13.88ZM383.28 13.95L383.28 13.95Q383.98 13.95 384.34 14.44Q384.71 14.93 384.71 15.58L384.71 15.58L384.71 17.15Q386.06 15.90 387.68 14.93Q389.31 13.95 390.90 13.95L390.90 13.95Q392.56 13.95 393.65 14.77Q394.74 15.59 395.30 16.91Q395.85 18.23 395.85 19.75L395.85 19.75L395.85 26.86Q395.85 27.33 395.90 27.80Q395.94 28.26 396.26 28.67L396.26 28.67Q396.66 29.16 396.96 29.44Q397.25 29.71 397.25 30.44L397.25 30.44Q397.25 31.20 396.79 31.60Q396.33 32 395.60 32L395.60 32L388.45 32Q387.74 32 387.35 31.57Q386.97 31.15 386.97 30.44L386.97 30.44Q386.97 29.80 387.27 29.43Q387.56 29.06 387.86 28.66Q388.16 28.26 388.16 27.52L388.16 27.52L388.16 21.59Q388.16 20.79 387.85 20.02Q387.53 19.25 386.54 19.25L386.54 19.25Q385.94 19.25 385.51 19.48Q385.09 19.71 384.71 20.07L384.71 20.07L384.71 27.06Q384.71 27.52 384.75 27.99Q384.78 28.46 385.09 28.86L385.09 28.86Q385.45 29.28 385.69 29.55Q385.92 29.81 385.92 30.44L385.92 30.44Q385.92 31.15 385.54 31.57Q385.16 32 384.44 32L384.44 32L377.29 32Q376.56 32 376.10 31.60Q375.64 31.20 375.64 30.44L375.64 30.44Q375.64 29.88 375.85 29.56Q376.06 29.25 376.34 28.98Q376.61 28.70 376.82 28.31Q377.04 27.92 377.04 27.23L377.04 27.23L377.04 20.89Q377.04 20.12 376.80 19.73Q376.56 19.34 376.23 19.11Q375.91 18.88 375.67 18.60Q375.43 18.33 375.43 17.78L375.43 17.78Q375.43 17.11 375.88 16.73Q376.32 16.35 376.87 16.12L376.87 16.12L380.56 14.64Q381.21 14.36 381.88 14.16Q382.56 13.95 383.28 13.95ZM418.65 33.37L418.65 33.37Q418.65 34.79 417.76 35.75Q416.87 36.72 415.46 37.31Q414.05 37.91 412.44 38.22Q410.82 38.53 409.33 38.64Q407.83 38.75 406.83 38.75L406.83 38.75Q406.14 38.75 405.09 38.71Q404.04 38.67 402.89 38.49Q401.75 38.32 400.75 37.96Q399.75 37.59 399.12 36.94Q398.49 36.29 398.49 35.30L398.49 35.30Q398.49 34.07 399.44 33.38Q400.40 32.68 401.75 32.34L401.75 32.34Q401.13 32.10 400.72 31.65Q400.31 31.20 400.31 30.43L400.31 30.43Q400.31 29.40 400.97 28.79Q401.63 28.17 402.65 27.86Q403.66 27.54 404.72 27.40L404.72 27.40Q403.20 27.04 401.88 26.31Q400.55 25.57 399.74 24.34Q398.93 23.11 398.93 21.30L398.93 21.30Q398.93 19.35 399.69 17.99Q400.45 16.64 401.73 15.79Q403.01 14.94 404.61 14.53Q406.21 14.11 407.88 14.06L407.88 14.06Q408.41 12.65 409.16 11.25Q409.90 9.85 411.05 8.91Q412.21 7.97 413.92 7.97L413.92 7.97Q415.32 7.97 416.23 8.79Q417.15 9.61 417.15 11.05L417.15 11.05Q417.15 12.21 416.57 13.16Q416.00 14.11 414.69 14.11L414.69 14.11Q413.76 14.11 413.27 13.64Q412.77 13.17 412.41 12.69Q412.05 12.21 411.56 12.21L411.56 12.21Q411.03 12.21 410.65 12.87Q410.28 13.53 410.06 14.12L410.06 14.12Q411.88 14.35 413.52 15.11Q415.17 15.87 416.20 17.25Q417.23 18.64 417.23 20.74L417.23 20.74Q417.23 22.60 416.47 23.94Q415.71 25.28 414.44 26.14Q413.17 26.99 411.58 27.39Q410.00 27.80 408.36 27.80L408.36 27.80Q407.83 27.80 407.32 27.76L407.32 27.76Q407.12 27.97 407.12 28.17L407.12 28.17Q407.12 28.51 407.62 28.66Q408.12 28.80 408.82 28.84Q409.53 28.87 410.15 28.86Q410.77 28.84 411.01 28.84L411.01 28.84Q412.24 28.84 413.58 28.95Q414.91 29.06 416.06 29.49Q417.22 29.92 417.93 30.83Q418.65 31.74 418.65 33.37ZM407.59 16.67L407.59 16.67Q407.10 16.67 406.89 17.08Q406.69 17.49 406.65 18.02Q406.60 18.55 406.60 18.89L406.60 18.89Q406.60 19.35 406.66 20.37Q406.72 21.39 406.91 22.50Q407.10 23.61 407.48 24.39Q407.87 25.16 408.53 25.16L408.53 25.16Q409.06 25.16 409.29 24.78Q409.51 24.40 409.55 23.88Q409.59 23.37 409.59 22.99L409.59 22.99Q409.59 22.50 409.54 21.46Q409.49 20.43 409.31 19.33Q409.13 18.23 408.72 17.45Q408.31 16.67 407.59 16.67ZM404.62 33.93L404.62 33.93Q404.62 34.46 405.14 34.77Q405.66 35.08 406.41 35.23Q407.15 35.38 407.83 35.43Q408.52 35.47 408.84 35.47L408.84 35.47Q409.22 35.47 409.98 35.36Q410.74 35.25 411.39 34.96Q412.04 34.67 412.04 34.12L412.04 34.12Q412.04 33.35 411.40 33.04Q410.76 32.73 409.95 32.68Q409.15 32.63 408.62 32.63L408.62 32.63Q407.83 32.63 407.05 32.67Q406.26 32.70 405.48 32.72L405.48 32.72Q405.12 32.97 404.87 33.28Q404.62 33.59 404.62 33.93Z"/></g>
            
          </svg>
        